<svg id="Capa_1" enable-background="new 0 0 512 512" height="512" viewBox="0 0 512 512" width="512" xmlns="http://www.w3.org/2000/svg"><g><path d="m508.022 323.859c-8.464-25.311-29.403-44.588-56.013-51.566-43.124-11.309-69.913-30.458-69.913-49.973 0-12.869 11.863-25.889 33.403-36.66 25.993-12.999 41.99-37.544 42.791-65.659.787-27.618-13.456-52.544-38.1-66.678-44.025-25.247-95.144-38.593-147.831-38.593-65.161 0-128.212 20.701-177.54 58.29-3.294 2.51-3.93 7.216-1.419 10.51 2.511 3.296 7.216 3.93 10.51 1.42 46.731-35.61 106.554-55.221 168.449-55.221 50.073 0 98.612 12.658 140.37 36.606 19.768 11.337 31.196 31.24 30.569 53.239-.641 22.497-13.541 42.187-34.507 52.672-27.276 13.64-41.693 30.956-41.693 50.075 0 27.056 30.32 51.161 81.107 64.481 21.696 5.689 38.74 21.321 45.593 41.814 6.531 19.528 2.895 40.065-9.973 56.345-19.064 24.118-42.902 44.495-70.853 60.564-3.59 2.064-4.828 6.649-2.763 10.239 2.071 3.602 6.66 4.821 10.239 2.763 29.61-17.024 54.892-38.646 75.143-64.266 16.065-20.325 20.597-45.986 12.431-70.402z"/><path d="m351.257 92.999c-28.684-19.423-74.352-19.432-103.049 0-30.377 20.57-30.736 55.69 0 76.503 28.681 19.422 74.352 19.432 103.049 0 30.378-20.569 30.736-55.69 0-76.503zm-51.525 76.067c-32.209 0-59.421-17.317-59.421-37.815s27.212-37.815 59.421-37.815c32.21 0 59.421 17.317 59.421 37.815s-27.211 37.815-59.421 37.815z"/><path d="m80.113 426.924c51.396 45.364 119.671 70.347 192.247 70.347 41.731 0 81.784-8.146 119.046-24.21 3.803-1.64 5.557-6.052 3.918-9.855-1.64-3.803-6.052-5.558-9.855-3.918-35.376 15.251-73.431 22.985-113.108 22.985-141.911 0-257.362-101.506-257.362-226.273 0-56.337 23.711-110.326 66.766-152.025 2.975-2.882 3.051-7.629.17-10.604s-7.629-3.051-10.604-.169c-45.999 44.548-71.331 102.364-71.331 162.798 0 64.625 28.451 125.327 80.113 170.924z"/><path d="m135.335 203.247c24.257 0 43.991-19.734 43.991-43.991s-19.734-43.991-43.991-43.991-43.992 19.734-43.992 43.991 19.734 43.991 43.992 43.991zm0-72.984c15.987 0 28.993 13.006 28.993 28.993s-13.006 28.993-28.993 28.993-28.993-13.006-28.993-28.993 13.006-28.993 28.993-28.993z"/><path d="m52.635 261.711c0 24.257 19.734 43.991 43.991 43.991s43.992-19.734 43.992-43.991-19.735-43.991-43.992-43.991-43.991 19.734-43.991 43.991zm43.991-28.993c15.987 0 28.993 13.006 28.993 28.993s-13.007 28.993-28.993 28.993-28.993-13.006-28.993-28.993 13.006-28.993 28.993-28.993z"/><path d="m280.839 438.8c18.202-16.035 19.965-43.888 3.93-62.09-16.035-18.201-43.888-19.963-62.09-3.929-18.201 16.035-19.963 43.888-3.929 62.089 16.144 18.325 43.924 19.933 62.089 3.93zm-48.245-54.765c11.997-10.567 30.354-9.405 40.921 2.59 16.969 19.263 2.121 49.724-23.586 48.1-25.716-1.627-36.586-33.729-17.335-50.69z"/><path d="m146.175 406.158c24.257 0 43.992-19.734 43.992-43.991s-19.734-43.991-43.992-43.991c-24.257 0-43.991 19.734-43.991 43.991s19.735 43.991 43.991 43.991zm0-72.984c15.987 0 28.993 13.006 28.993 28.993s-13.007 28.993-28.993 28.993-28.993-13.006-28.993-28.993 13.007-28.993 28.993-28.993z"/><path d="m311.811 303.648c0-17.085-12.779-30.985-28.487-30.985s-28.487 13.9-28.487 30.985 12.779 30.985 28.487 30.985 28.487-13.9 28.487-30.985zm-28.488 15.987c-7.438 0-13.488-7.172-13.488-15.987s6.051-15.986 13.488-15.986 13.489 7.172 13.489 15.986c0 8.815-6.051 15.987-13.489 15.987z"/><path d="m193.848 289.597c0-5.565 4.527-10.093 10.092-10.093s10.093 4.528 10.093 10.093c0 4.141 3.358 7.499 7.499 7.499s7.499-3.358 7.499-7.499c0-13.836-11.256-25.091-25.091-25.091s-25.091 11.256-25.091 25.091c0 4.141 3.358 7.499 7.499 7.499s7.5-3.358 7.5-7.499z"/><path d="m343.599 297.096c4.142 0 7.499-3.358 7.499-7.499 0-5.565 4.527-10.093 10.092-10.093s10.093 4.528 10.093 10.093c0 4.141 3.358 7.499 7.499 7.499 4.142 0 7.499-3.358 7.499-7.499 0-13.836-11.256-25.091-25.091-25.091s-25.091 11.256-25.091 25.091c.001 4.141 3.358 7.499 7.5 7.499z"/></g></svg>