<?xml version="1.0" encoding="utf-8"?>
<!-- Generator: Adobe Illustrator 16.0.0, SVG Export Plug-In . SVG Version: 6.00 Build 0)  -->
<!DOCTYPE svg PUBLIC "-//W3C//DTD SVG 1.1//EN" "http://www.w3.org/Graphics/SVG/1.1/DTD/svg11.dtd">
<svg version="1.1" id="Layer_1" xmlns="http://www.w3.org/2000/svg" xmlns:xlink="http://www.w3.org/1999/xlink" x="0px" y="0px"
	 width="1165.896px" height="485.507px" viewBox="0 0 1165.896 485.507" enable-background="new 0 0 1165.896 485.507"
	 xml:space="preserve">
<g>
	<path d="M537.637,95.619c0,27.518,0.611,55.037-0.168,82.5c-0.75,25.711-5.865,50.588-19.68,72.938
		c-10.563,17.123-25.295,29.463-43.641,37.58c-12.592,5.615-25.822,8.84-39.387,10.508c-13.369,1.639-26.795,1.945-40.277,1.055
		c-15.844-1.055-31.299-3.725-46.113-9.506c-29.576-11.563-48.504-33.078-58.594-62.818c-4.504-13.232-7.061-26.908-7.813-40.861
		c-0.555-10.229-0.889-20.486-0.916-30.742c-0.084-47.311-0.027-94.619-0.027-141.9c0-5.143,1.834-7.867,6.059-8.813
		c0.779-0.166,1.611-0.139,2.445-0.139c21.348,0,42.695,0,64.043,0c6.061,0,8.617,2.586,8.617,8.701
		c0,52.979-0.111,105.932,0.111,158.883c0.057,11.508,1.918,22.793,7.061,33.355c5.504,11.174,14.232,18.18,26.406,20.709
		c11.285,2.363,22.516,2.223,33.412-1.641c12.285-4.336,19.568-13.508,23.57-25.572c3.197-9.617,4.113-19.514,4.143-29.576
		c0.027-51.729,0.027-103.457,0.027-155.213c0-0.975-0.027-1.947,0.055-2.947c0.389-4.059,3.002-6.672,7.117-6.672
		c22.18-0.055,44.361-0.055,66.543,0c4.615,0,7.088,2.975,7.117,8.117c0,19.402,0,38.748,0,58.15c0,7.949,0,15.928,0,23.904
		C537.748,95.619,537.691,95.619,537.637,95.619z"/>
	<path d="M938.514,0c29.02,0.611,54.648,5.699,78.941,16.732c2.67,1.225,5.227,2.725,7.729,4.254
		c3.529,2.168,4.531,5.309,3.113,9.117c-6.004,15.982-12.008,31.938-18.068,47.893c-1.807,4.836-5.393,6.254-10.174,4.393
		c-13.396-5.227-26.74-10.701-40.889-13.621c-11.313-2.279-22.709-3.225-33.883,0.668c-6.311,2.168-10.617,6.531-11.563,13.176
		c-0.945,6.754,0.777,13.008,6.336,17.678c7.033,5.949,15.566,8.395,24.268,10.563c13.035,3.279,26.156,6.115,39.053,9.896
		c11.896,3.502,22.877,9.145,32.689,16.955c12.174,9.674,19.957,22.236,23.877,37.191c5.309,20.236,5.531,40.5-1.195,60.484
		c-7.006,20.959-20.902,36.246-39.943,47.031c-14.205,8.061-29.547,12.787-45.67,14.844c-7.143,0.889-14.342,1.834-21.514,1.891
		c-20.541,0.221-40.416-3.781-59.707-10.758c-15.232-5.504-29.631-12.676-43.807-20.402c-3.613-1.945-4.643-5.338-2.947-9.535
		c4.281-10.617,8.617-21.236,12.926-31.854c2.475-6.115,4.947-12.287,7.477-18.373c1.891-4.504,4.922-5.088,9.285-2.92
		c11.285,5.672,22.736,11.119,34.244,16.316c8.895,4.004,18.096,7.088,27.824,8.506c10.98,1.586,21.988,1.975,32.939-0.305
		c13.258-2.779,19.43-12.176,17.123-25.518c-1.836-10.285-8.674-16.178-17.734-19.291c-11.396-3.891-23.127-6.893-34.801-10.063
		c-13.676-3.725-27.631-6.615-40.193-13.619c-18.902-10.508-30.465-26.295-34.635-47.531c-1.945-9.951-2.557-20.014-1.834-30.076
		c1.334-18.873,7.672-35.912,19.984-50.451c13.594-16.094,31.41-25.016,51.563-29.77c3.559-0.834,7.172-1.557,10.813-1.945
		C927.063,0.834,934.012,0.389,938.514,0z"/>
	<path d="M118.578,5.42c36.469,0,72.938,0,109.406,0c6.506,0,8.896,2.391,8.896,8.895c0,18.373,0,36.775,0,55.176
		c0,6.338-2.42,8.729-8.813,8.729c-20.264,0-40.555,0.166-60.846-0.055c-5.893-0.084-8.895,3.391-8.895,8.783
		c0.111,65.543,0.111,131.088,0.111,196.604c0,1.389,0.111,2.807-0.084,4.168c-0.668,4.143-4.504,7.59-8.811,7.59
		c-8.283-0.057-16.568,0.055-24.852-0.557c-10.313-0.777-19.346-5.115-27.322-11.674c-10.146-8.395-16.096-19.236-18.43-32.078
		c-0.527-3.029-0.611-6.17-0.611-9.283c-0.027-51.59-0.027-103.125-0.027-154.715c0-6.227-2.559-8.783-8.785-8.783
		c-20.207,0-40.387,0.027-60.623,0C2.557,78.219,0,75.662,0,69.268c0-18.455,0-36.969,0-55.426C0,8.172,2.779,5.42,8.479,5.42
		C45.197,5.42,81.889,5.42,118.578,5.42z"/>
	<path d="M585.863,150.295c0-45.502,0.055-90.979-0.084-136.48c0-5.42,3.391-8.479,8.422-8.422
		c21.098,0.111,42.223,0.027,63.32,0.027c5.865,0,8.533,2.697,8.533,8.59c0,64.32,0,128.586-0.027,192.906
		c0,2.891-0.084,5.836,2.584,7.504c1.697,1.057,3.947,1.779,5.922,1.779c37.357,0.111,74.744,0.084,112.102,0.084
		c5.781,0,8.201,2.418,8.201,8.172c0,20.932,0,41.889,0,62.82c0,5.531-2.586,8.061-8.145,8.061
		c-64.238,0.027-128.475,0.027-192.684,0c-5.561,0-8.145-2.529-8.145-8.061C585.863,241.605,585.863,195.965,585.863,150.295z"/>
	<path d="M1086.084,149.295c0-45.17,0.057-90.311-0.082-135.453c0-5.42,3.336-8.506,8.449-8.449c21.154,0.111,42.334,0,63.543,0.084
		c1.834,0.027,3.891,0.584,5.504,1.445c1.945,1.027,2.391,3.029,2.391,5.252c-0.029,73.078-0.029,146.154-0.029,219.23
		c0,4.197,0.084,8.367,0,12.564c-0.416,20.264-10.201,34.883-27.379,44.891c-8.115,4.725-17.066,6.504-26.406,6.504
		c-5.17-0.027-10.34,0-15.51,0c-7.117-0.027-10.48-3.447-10.48-10.617C1086.084,239.604,1086.084,194.463,1086.084,149.295z"/>
	<path d="M850.232,431.482c-0.305-29.604,22.904-54.176,54.676-54.148c29.715,0,54.619,21.154,54.676,53.898
		c0.027,32.354-25.406,54.98-56.482,54.258C873.693,484.795,849.844,462.252,850.232,431.482z M910.107,396.209
		c-17.123,0.277-26.324,5.002-32.773,14.787c-6.197,9.34-7.254,19.596-4.641,30.299c5.252,21.514,30.186,31.965,49.172,20.568
		c10.09-6.059,15.203-15.344,16.232-26.906C940.127,412.107,923.227,395.598,910.107,396.209z"/>
	<path d="M439.348,431.564c-0.361-29.631,23.1-54.34,54.842-54.258c30.16,0.111,54.564,21.904,54.564,53.98
		c0,31.605-24.682,54.314-55.23,54.203C463.197,485.406,438.959,462.309,439.348,431.564z M494.719,396.402
		c-9.033-0.25-16.15,2.475-22.293,7.701c-15.26,12.98-15.287,37.969-2.918,51.479c12.313,13.508,34.189,14.676,47.281,1.945
		c8.367-8.172,11.34-18.262,10.451-29.77C525.85,409.939,511.174,395.709,494.719,396.402z"/>
	<path d="M694.406,465.422c0.834,0.055,1.668,0.166,2.502,0.166c12.898,0,25.795,0,38.693,0c3.336,0,4.17,0.861,4.17,4.225
		c0,3.393,0.027,6.727,0,10.119c-0.029,2.723-1.141,3.891-3.865,3.947c-3.029,0.055-6.086,0.027-9.117,0.027
		c-19.457,0-38.914,0-58.371,0c-4.143,0-5.088-0.945-5.088-5.031c0-2.475,0.111-4.947-0.027-7.395
		c-0.193-2.779,0.973-4.559,3.029-6.281c9.508-7.949,18.93-15.955,28.297-24.072c5.311-4.613,10.73-9.172,15.566-14.26
		c2.779-2.945,5.227-6.643,6.615-10.451c2.057-5.809,1.502-11.896-3.418-16.371c-5.365-4.838-11.787-4.949-18.264-2.559
		c-5.002,1.836-8.615,5.561-12.008,9.508c-0.666,0.723-1.277,1.5-1.889,2.279c-1.391,1.723-3.059,1.889-4.727,0.611
		c-3.225-2.447-6.338-4.947-9.506-7.449c-1.611-1.279-1.945-2.92-0.75-4.531c6.67-9.174,14.621-16.678,26.156-19.096
		c12.23-2.529,23.961-1.836,34.467,5.754c6.977,5.031,10.619,12.09,11.646,20.541c1.807,14.51-4.475,25.684-14.926,34.855
		c-9.229,8.117-18.734,15.9-28.158,23.822c-0.416,0.361-1,0.527-1.529,0.779C694.074,464.865,694.24,465.143,694.406,465.422z"/>
	<path d="M283.801,465.477c1.584,0.057,2.445,0.111,3.307,0.111c12.814,0,25.602,0,38.443,0c3.418,0.027,4.113,0.723,4.141,4.225
		c0,3.504-0.082,7.061,0.027,10.563c0.084,2.391-1.223,3.225-3.223,3.504c-0.975,0.109-1.947,0.027-2.947,0.027
		c-21.682,0-43.361,0-65.043,0c-4.281,0-5.227-0.945-5.227-5.143c0-2.141,0.223-4.309-0.055-6.393
		c-0.445-3.363,1.057-5.531,3.502-7.561c11.369-9.508,22.682-19.098,33.967-28.742c5.281-4.559,10.508-9.172,14.26-15.176
		c4.531-7.283,3.641-16.457-2.084-21.377c-4.865-4.168-14.121-4.863-20.125-0.805c-3.947,2.668-7.338,6.197-10.674,9.672
		c-2.502,2.613-3.67,3.059-6.561,0.807c-2.918-2.252-5.781-4.586-8.672-6.865c-1.557-1.279-1.723-2.863-0.639-4.365
		c6.697-9.229,14.73-16.816,26.379-19.207c12.369-2.502,24.293-1.723,34.828,6.227c7.031,5.281,10.451,12.648,11.229,21.293
		c1.057,11.785-2.973,21.791-11.367,29.908c-6.227,5.949-12.814,11.508-19.318,17.15c-4.143,3.586-8.424,7.004-12.648,10.535
		C284.939,464.143,284.635,464.531,283.801,465.477z"/>
</g>
</svg>
