<?xml version="1.0" encoding="utf-8"?>
<!-- Generator: Adobe Illustrator 16.0.0, SVG Export Plug-In . SVG Version: 6.00 Build 0)  -->
<!DOCTYPE svg PUBLIC "-//W3C//DTD SVG 1.1//EN" "http://www.w3.org/Graphics/SVG/1.1/DTD/svg11.dtd">
<svg version="1.1" id="Layer_1" xmlns="http://www.w3.org/2000/svg" xmlns:xlink="http://www.w3.org/1999/xlink" x="0px" y="0px"
	 width="84.54px" height="88px" viewBox="0 0 84.54 88" enable-background="new 0 0 84.54 88" xml:space="preserve">
<g>
	<path d="M66.659,73.206l-13.074-1.48c-0.043-0.005-0.087-0.007-0.131-0.007c-0.401,0-0.782,0.208-1.007,0.565
		c-0.248,0.37-0.257,0.868-0.007,1.266l1.34,2.281c0.277,0.473,0.123,1.08-0.346,1.363c-3.644,2.196-7.581,3.514-11.701,3.918
		c-0.925,0.092-1.876,0.139-2.826,0.139c-5.766,0-10.867-1.692-14.131-3.11c-1.729-0.748-3.472-1.649-5.196-2.687
		c-0.46-0.287-0.831-0.53-1.124-0.722l-0.25-0.163c-0.036-0.023-0.071-0.049-0.104-0.077c-0.034-0.03-0.073-0.053-0.108-0.075
		c-0.107-0.071-0.205-0.142-0.269-0.199c-0.217-0.161-0.471-0.246-0.732-0.246c-0.367,0-0.708,0.167-0.944,0.468
		c-0.402,0.502-0.322,1.252,0.175,1.668c8.114,6.733,15.476,10.517,22.505,11.567C40.171,87.89,41.612,88,43.012,88
		c2.026,0,4.03-0.213,6.125-0.65c2.816-0.589,5.632-1.555,8.606-2.952c0.137-0.064,0.281-0.095,0.424-0.095
		c0.319,0,0.629,0.152,0.821,0.428l1.769,2.538c0.209,0.318,0.579,0.509,0.991,0.509c0.045,0,0.091-0.002,0.112-0.004
		c0.444-0.057,0.831-0.357,1.002-0.77l4.771-12.17c0.135-0.333,0.104-0.735-0.079-1.044C67.361,73.47,67.022,73.251,66.659,73.206z"
		/>
	<path d="M16.72,14.798l13.084,1.473c0.039,0.005,0.088,0.011,0.136,0.011c0.402,0,0.779-0.208,0.998-0.54
		c0.249-0.394,0.259-0.899,0.024-1.289l-1.359-2.272c-0.283-0.474-0.129-1.087,0.344-1.371c3.669-2.201,7.612-3.521,11.72-3.927
		c0.912-0.089,1.851-0.135,2.788-0.135c5.761,0,10.874,1.69,14.156,3.11c2.655,1.17,4.513,2.271,5.182,2.687
		c0.623,0.38,1.108,0.692,1.36,0.875c0.21,0.128,0.329,0.222,0.401,0.283l0.127,0.089c0.209,0.158,0.456,0.241,0.715,0.241
		c0.364,0,0.704-0.166,0.935-0.456c0.427-0.537,0.36-1.264-0.155-1.691C59.093,5.168,51.726,1.384,44.652,0.321
		C43.219,0.108,41.772,0,40.354,0c-2.036,0-4.035,0.211-6.111,0.646c-2.784,0.583-5.601,1.548-8.608,2.953
		c-0.136,0.063-0.28,0.094-0.423,0.094c-0.318,0-0.629-0.153-0.82-0.429l-1.765-2.535c-0.208-0.316-0.567-0.505-0.961-0.505
		c-0.046,0-0.092,0.002-0.14,0.008c-0.453,0.051-0.823,0.335-0.989,0.76l-4.788,12.166c-0.139,0.347-0.107,0.737,0.077,1.057
		C16.018,14.534,16.356,14.753,16.72,14.798z"/>
	<path d="M57.272,34.622c0,6.604,5.385,11.976,12.001,11.976c3.199,0,6.207-1.247,8.469-3.511c2.273-2.271,3.524-5.285,3.524-8.486
		c-0.012-6.605-5.393-11.979-11.993-11.979c-3.201,0-6.214,1.248-8.484,3.512C58.521,28.397,57.272,31.411,57.272,34.622z
		 M69.273,25.319c5.117,0,9.285,4.163,9.285,9.281c0,2.463-0.968,4.799-2.723,6.58c-1.769,1.754-4.099,2.721-6.563,2.721
		c-5.125,0-9.293-4.162-9.293-9.279c0-2.475,0.967-4.812,2.724-6.58C64.466,26.286,66.799,25.319,69.273,25.319z"/>
	<path d="M78.392,47.509c-0.251-0.229-0.579-0.354-0.919-0.354c-0.302,0-0.589,0.096-0.801,0.257
		c-0.025,0.025-3.299,2.529-7.556,2.529c-2.464,0-4.74-0.836-6.773-2.488c-0.241-0.2-0.546-0.309-0.857-0.309
		c-0.325,0-0.636,0.116-0.88,0.325c-0.661,0.592-6.457,6.083-6.605,16.54c-0.004,0.352,0.138,0.699,0.388,0.953
		c0.262,0.267,0.604,0.414,0.963,0.414l27.826-0.01c0.735,0,1.334-0.573,1.362-1.348C84.555,62.222,84.339,52.973,78.392,47.509z
		 M81.702,62.583c-0.053,0.055-0.123,0.085-0.198,0.085H57.057c-0.074,0-0.146-0.031-0.199-0.086
		c-0.05-0.056-0.076-0.131-0.07-0.206c0.488-6.176,3.141-10.117,4.679-11.918c0.054-0.062,0.13-0.094,0.207-0.094
		c0.052,0,0.103,0.015,0.15,0.046c2.225,1.481,4.69,2.234,7.325,2.234c2.674,0,5.58-0.824,7.974-2.264
		c0.042-0.024,0.093-0.038,0.14-0.038c0.075,0,0.151,0.031,0.203,0.092c3.306,3.734,4.118,9.087,4.309,11.944
		C81.778,62.455,81.752,62.528,81.702,62.583z"/>
	<path d="M15.273,46.597c3.199,0,6.207-1.247,8.469-3.511c2.273-2.271,3.524-5.285,3.524-8.486
		c-0.012-6.605-5.393-11.979-11.993-11.979c-3.201,0-6.214,1.248-8.484,3.512c-2.268,2.264-3.517,5.277-3.517,8.488
		C3.272,41.225,8.657,46.597,15.273,46.597z M8.704,28.042c1.762-1.756,4.095-2.723,6.569-2.723c5.117,0,9.285,4.163,9.285,9.281
		c0,2.463-0.968,4.799-2.723,6.58c-1.769,1.754-4.099,2.721-6.563,2.721c-5.125,0-9.293-4.162-9.293-9.279
		C5.98,32.147,6.947,29.81,8.704,28.042z"/>
	<path d="M30.539,64.02c0.016-1.798-0.2-11.047-6.147-16.511c-0.251-0.229-0.579-0.354-0.919-0.354
		c-0.302,0-0.589,0.096-0.801,0.257c-0.025,0.025-3.299,2.529-7.556,2.529c-2.464,0-4.74-0.836-6.773-2.488
		c-0.241-0.2-0.546-0.309-0.857-0.309c-0.325,0-0.636,0.116-0.88,0.325C5.944,48.062,0.148,53.553,0,64.01
		c-0.004,0.352,0.138,0.699,0.388,0.953c0.262,0.267,0.604,0.414,0.963,0.414l27.826-0.01C29.912,65.368,30.511,64.794,30.539,64.02
		z M27.702,62.583c-0.053,0.055-0.123,0.085-0.198,0.085H3.057c-0.074,0-0.146-0.031-0.199-0.086
		c-0.05-0.056-0.076-0.131-0.07-0.206c0.488-6.176,3.141-10.117,4.679-11.918c0.054-0.062,0.13-0.094,0.207-0.094
		c0.052,0,0.103,0.015,0.15,0.046c2.225,1.481,4.69,2.234,7.325,2.234c2.674,0,5.58-0.824,7.974-2.264
		c0.042-0.024,0.093-0.038,0.14-0.038c0.075,0,0.151,0.031,0.203,0.092c3.306,3.734,4.118,9.087,4.309,11.944
		C27.778,62.455,27.752,62.528,27.702,62.583z"/>
</g>
</svg>
