<?xml version="1.0" encoding="utf-8"?>
<!-- Generator: Adobe Illustrator 16.0.0, SVG Export Plug-In . SVG Version: 6.00 Build 0)  -->
<!DOCTYPE svg PUBLIC "-//W3C//DTD SVG 1.1//EN" "http://www.w3.org/Graphics/SVG/1.1/DTD/svg11.dtd">
<svg version="1.1" id="Layer_1" xmlns="http://www.w3.org/2000/svg" xmlns:xlink="http://www.w3.org/1999/xlink" x="0px" y="0px"
	 width="90px" height="78.351px" viewBox="0 0 90 78.351" enable-background="new 0 0 90 78.351" xml:space="preserve">
<path id="XMLID_10139_" fill="#EF3A34" d="M73.533,0.959C64.352-1.411,52.15,1.446,44.97,11.113
	C37.312,0.855,25.021-1.523,16.197,0.84C6.207,3.509,0,11.824,0,22.54c0,24.496,41.919,54.149,43.698,55.398
	c0.391,0.271,0.853,0.413,1.303,0.413c0.447,0,0.912-0.143,1.3-0.413C48.079,76.689,90,47.036,90,22.54
	C90,11.839,83.7,3.576,73.533,0.959z M64.814,56.494c-8.269,8.09-16.661,14.467-19.813,16.787
	c-3.142-2.312-11.501-8.667-19.771-16.749C11.695,43.318,4.531,31.564,4.531,22.54c0-8.697,4.815-15.173,12.832-17.311
	c1.705-0.457,3.529-0.696,5.443-0.696c7.179,0,15.345,3.396,20.221,11.882c0.418,0.71,1.165,1.151,2.003,1.135
	c0.807-0.006,1.557-0.456,1.958-1.173C52.566,6.275,63.993,3.196,72.41,5.357c8.166,2.107,13.057,8.523,13.057,17.183
	C85.467,31.549,78.317,43.289,64.814,56.494z"/>
</svg>
