<?xml version="1.0" encoding="utf-8"?>
<!-- Generator: Adobe Illustrator 16.0.0, SVG Export Plug-In . SVG Version: 6.00 Build 0)  -->
<!DOCTYPE svg PUBLIC "-//W3C//DTD SVG 1.1//EN" "http://www.w3.org/Graphics/SVG/1.1/DTD/svg11.dtd">
<svg version="1.1" id="Layer_1" xmlns="http://www.w3.org/2000/svg" xmlns:xlink="http://www.w3.org/1999/xlink" x="0px" y="0px"
	 width="91px" height="82.59px" viewBox="0 0 91 82.59" enable-background="new 0 0 91 82.59" xml:space="preserve">
<g>
	<path d="M78.342,0H12.658C5.679,0,0,5.683,0,12.667v42.079c0,6.984,5.679,12.666,12.658,12.666h42.576l21.895,14.7
		c0.468,0.313,1.019,0.478,1.591,0.478c0.461,0,0.922-0.113,1.339-0.331c0.933-0.509,1.49-1.451,1.49-2.523V66.077
		C85.979,64.123,91,60.047,91,54.746V12.667C91,5.683,85.321,0,78.342,0z M75.856,64.115v10.293L57.697,62.204
		c-0.479-0.316-1.028-0.484-1.589-0.484h-43.45c-3.832,0-6.949-3.128-6.949-6.974V12.667c0-3.841,3.117-6.967,6.949-6.967h65.684
		c3.841,0,6.966,3.125,6.966,6.967v42.079c0,2.464-3.931,5.544-7.442,6.651C76.664,61.771,75.856,62.863,75.856,64.115z"/>
	<path d="M73.14,17.153H17.746c-1.892,0-3.43,1.531-3.43,3.413c0,1.882,1.538,3.414,3.43,3.414H73.14
		c1.873,0,3.397-1.532,3.397-3.414C76.537,18.685,75.013,17.153,73.14,17.153z"/>
	<path d="M73.14,30.1H17.746c-1.892,0-3.43,1.531-3.43,3.413c0,1.887,1.538,3.423,3.43,3.423H73.14c1.873,0,3.397-1.536,3.397-3.423
		C76.537,31.631,75.013,30.1,73.14,30.1z"/>
	<path d="M73.14,42.603H17.746c-1.892,0-3.43,1.535-3.43,3.422c0,1.883,1.538,3.414,3.43,3.414H73.14
		c1.873,0,3.397-1.531,3.397-3.414C76.537,44.138,75.013,42.603,73.14,42.603z"/>
</g>
</svg>
