<?xml version="1.0" encoding="utf-8"?>
<!-- Generator: Adobe Illustrator 16.0.0, SVG Export Plug-In . SVG Version: 6.00 Build 0)  -->
<!DOCTYPE svg PUBLIC "-//W3C//DTD SVG 1.1//EN" "http://www.w3.org/Graphics/SVG/1.1/DTD/svg11.dtd">
<svg version="1.1" id="Layer_1" xmlns="http://www.w3.org/2000/svg" xmlns:xlink="http://www.w3.org/1999/xlink" x="0px" y="0px"
	 width="90px" height="90.002px" viewBox="0 0 90 90.002" enable-background="new 0 0 90 90.002" xml:space="preserve">
<g>
	<g>
		<path d="M85.129,38.734H51.252V4.871C51.252,3.349,49.169,0,44.971,0c-4.167,0-6.251,3.349-6.251,4.871v33.863H4.87
			c-1.535,0-4.87,2.083-4.87,6.282c0,4.167,3.335,6.267,4.87,6.267h33.85v33.845c0,1.522,2.084,4.875,6.251,4.875
			c4.198,0,6.281-3.353,6.281-4.875V51.282h33.877c1.509,0,4.871-2.1,4.871-6.267C90,40.817,86.638,38.734,85.129,38.734z"/>
	</g>
</g>
</svg>
