<?xml version="1.0" encoding="utf-8"?>
<!-- Generator: Adobe Illustrator 16.0.0, SVG Export Plug-In . SVG Version: 6.00 Build 0)  -->
<!DOCTYPE svg PUBLIC "-//W3C//DTD SVG 1.1//EN" "http://www.w3.org/Graphics/SVG/1.1/DTD/svg11.dtd">
<svg version="1.1" id="Layer_1" xmlns="http://www.w3.org/2000/svg" xmlns:xlink="http://www.w3.org/1999/xlink" x="0px" y="0px"
	 width="80.231px" height="90px" viewBox="0 0 80.231 90" enable-background="new 0 0 80.231 90" xml:space="preserve">
<path d="M78.965,80.857L56.387,53.261c4.93-5.652,7.926-13.033,7.926-21.104C64.313,14.425,49.887,0,32.156,0S0,14.425,0,32.156
	c0,17.73,14.426,32.156,32.156,32.156c5.627,0,10.92-1.458,15.527-4.009l22.617,27.643C71.408,89.299,73.014,90,74.635,90
	c1.248,0,2.502-0.415,3.543-1.266C80.57,86.776,80.924,83.25,78.965,80.857z M6.105,32.156c0-14.387,11.662-26.05,26.051-26.05
	c14.387,0,26.049,11.663,26.049,26.05c0,14.388-11.662,26.05-26.049,26.05C17.768,58.206,6.105,46.544,6.105,32.156z"/>
</svg>
