<?xml version="1.0" encoding="utf-8"?>
<!-- Generator: Adobe Illustrator 16.0.0, SVG Export Plug-In . SVG Version: 6.00 Build 0)  -->
<!DOCTYPE svg PUBLIC "-//W3C//DTD SVG 1.1//EN" "http://www.w3.org/Graphics/SVG/1.1/DTD/svg11.dtd">
<svg version="1.1" id="Layer_1" xmlns="http://www.w3.org/2000/svg" xmlns:xlink="http://www.w3.org/1999/xlink" x="0px" y="0px"
	 width="69.815px" height="90px" viewBox="0 0 69.815 90" enable-background="new 0 0 69.815 90" xml:space="preserve">
<g>
	<g>
		<g>
			<path d="M24.242,79.263c0,0.019,0,0.032,0,0.064C24.242,85.229,29.013,90,34.913,90s10.671-4.771,10.671-10.673
				c0-0.032,0-0.046,0-0.064H24.242z"/>
			<path d="M68.989,65.916l-9.607-14.09c0-4.321,0-14.878,0-17.604c0-11.88-8.444-21.777-19.663-24.002V4.805
				C39.719,2.145,37.556,0,34.913,0c-2.644,0-4.806,2.145-4.806,4.805v5.416c-11.219,2.225-19.663,12.122-19.663,24.002
				c0,4.644,0,14.896,0,17.604l-9.608,14.09c-1.031,1.498-1.099,3.402-0.257,5.013c0.836,1.58,2.482,2.58,4.254,2.58h60.16
				c1.771,0,3.418-1,4.254-2.58C70.088,69.318,69.991,67.414,68.989,65.916z"/>
		</g>
	</g>
</g>
</svg>
