<?xml version="1.0" encoding="utf-8"?>
<!-- Generator: Adobe Illustrator 16.0.0, SVG Export Plug-In . SVG Version: 6.00 Build 0)  -->
<!DOCTYPE svg PUBLIC "-//W3C//DTD SVG 1.1//EN" "http://www.w3.org/Graphics/SVG/1.1/DTD/svg11.dtd">
<svg version="1.1" id="Layer_1" xmlns="http://www.w3.org/2000/svg" xmlns:xlink="http://www.w3.org/1999/xlink" x="0px" y="0px"
	 width="90px" height="70.157px" viewBox="0 0 90 70.157" enable-background="new 0 0 90 70.157" xml:space="preserve">
<path fill="#EF3A34" d="M83.942,0H6.058C2.712,0,0,2.712,0,6.058c0,3.346,2.712,6.058,6.058,6.058h32.911v7.061H14.235
	c-3.346,0-6.058,2.712-6.058,6.058s2.712,6.058,6.058,6.058h24.733V64.1c0,3.347,2.712,6.058,6.058,6.058s6.058-2.711,6.058-6.058
	V31.292h24.681c3.346,0,6.058-2.712,6.058-6.058s-2.712-6.058-6.058-6.058H51.084v-7.061h32.858c3.346,0,6.058-2.712,6.058-6.058
	C90,2.712,87.288,0,83.942,0z"/>
</svg>
