<?xml version="1.0" encoding="utf-8"?>
<!-- Generator: Adobe Illustrator 16.0.0, SVG Export Plug-In . SVG Version: 6.00 Build 0)  -->
<!DOCTYPE svg PUBLIC "-//W3C//DTD SVG 1.1//EN" "http://www.w3.org/Graphics/SVG/1.1/DTD/svg11.dtd">
<svg version="1.1" id="Layer_1" xmlns="http://www.w3.org/2000/svg" xmlns:xlink="http://www.w3.org/1999/xlink" x="0px" y="0px"
	 width="90px" height="67.547px" viewBox="0 0 90 67.547" enable-background="new 0 0 90 67.547" xml:space="preserve">
<g id="XMLID_5947_">
	<path id="XMLID_5949_" d="M42.643,12.279l-7.25-11.284C34.997,0.381,34.302,0,33.58,0H2.181C0.981,0,0,0.967,0,2.167v63.228
		c0,1.199,0.981,2.153,2.181,2.153h75.567c1.213,0,2.167-0.954,2.167-2.153V38.39C85.775,36.319,90,30.704,90,24.135
		c0-8.34-6.787-15.141-15.154-15.141c-3.543,0-6.787,1.24-9.376,3.284H42.643z M86.538,24.135c0,6.446-5.232,11.693-11.692,11.693
		c-6.433,0-11.666-5.247-11.666-11.693c0-6.433,5.233-11.679,11.666-11.679C81.306,12.456,86.538,17.703,86.538,24.135z
		 M4.334,63.213V4.333h28.047l7.25,11.271c0.408,0.627,1.09,1.008,1.826,1.008h20.278c-1.281,2.208-2.017,4.77-2.017,7.523
		c0,8.368,6.786,15.154,15.127,15.154c0.245,0,0.49-0.027,0.735-0.041v23.965H4.334z"/>
	<path id="XMLID_5948_" d="M71.916,27.488l-1.854-2.153c-0.464-0.545-1.295-0.6-1.826-0.136c-0.546,0.463-0.613,1.281-0.15,1.826
		l2.726,3.162c0.218,0.272,0.545,0.436,0.886,0.463c0.041,0,0.068,0,0.096,0c0.313,0,0.627-0.109,0.858-0.327l10.181-9.049
		c0.545-0.463,0.572-1.281,0.108-1.826c-0.477-0.545-1.308-0.586-1.826-0.109L71.916,27.488z"/>
</g>
</svg>
