<?xml version="1.0" encoding="utf-8"?>
<!-- Generator: Adobe Illustrator 16.0.0, SVG Export Plug-In . SVG Version: 6.00 Build 0)  -->
<!DOCTYPE svg PUBLIC "-//W3C//DTD SVG 1.1//EN" "http://www.w3.org/Graphics/SVG/1.1/DTD/svg11.dtd">
<svg version="1.1" id="Layer_1" xmlns="http://www.w3.org/2000/svg" xmlns:xlink="http://www.w3.org/1999/xlink" x="0px" y="0px"
	 width="72.524px" height="90.464px" viewBox="0 0 72.524 90.464" enable-background="new 0 0 72.524 90.464" xml:space="preserve">
<path fill="#E06E6E" d="M56.637,58.688c-4.574,0-8.69,1.954-11.592,5.058L30.266,53.272c0.959-2.043,1.51-4.313,1.51-6.715
	c0-2.757-0.708-5.351-1.948-7.613L45.807,27.48c2.841,2.656,6.644,4.296,10.83,4.296c8.761,0,15.888-7.127,15.888-15.888
	S65.397,0,56.637,0S40.749,7.127,40.749,15.888c0,2.773,0.718,5.381,1.973,7.653L26.753,34.997
	c-2.845-2.675-6.661-4.328-10.865-4.328C7.127,30.669,0,37.796,0,46.558c0,8.761,7.127,15.889,15.888,15.889
	c4.563,0,8.67-1.944,11.57-5.034l14.787,10.477c-0.95,2.036-1.496,4.296-1.496,6.687c0,8.761,7.127,15.889,15.888,15.889
	s15.888-7.128,15.888-15.889S65.397,58.688,56.637,58.688z M56.637,5c6.013,0,10.888,4.875,10.888,10.888
	c0,6.012-4.875,10.888-10.888,10.888S45.749,21.9,45.749,15.888C45.749,9.875,50.624,5,56.637,5z M15.888,57.446
	C9.875,57.446,5,52.569,5,46.558c0-6.013,4.875-10.888,10.888-10.888s10.888,4.875,10.888,10.888
	C26.775,52.569,21.9,57.446,15.888,57.446z M56.637,85.464c-6.013,0-10.888-4.876-10.888-10.889s4.875-10.888,10.888-10.888
	s10.888,4.875,10.888,10.888S62.649,85.464,56.637,85.464z"/>
</svg>
